<svg width="35" height="34" viewBox="0 0 35 34" fill="none" xmlns="http://www.w3.org/2000/svg">
<g clip-path="url(#clip0_13_1100)">
<path d="M15.3125 7.13859C15.715 7.13859 16.0417 6.82126 16.0417 6.43026C16.0417 5.24026 16.8102 4.27126 17.7537 4.27126C18.1562 4.27126 18.4829 3.95392 18.4829 3.56292C18.4829 3.17192 18.1562 2.85459 17.7537 2.85459C16.0052 2.85601 14.5833 4.45967 14.5833 6.43026C14.5833 6.82126 14.91 7.13859 15.3125 7.13859ZM34.9242 27.3303C33.9106 25.3626 31.6706 24.3596 29.4729 24.8951L24.7479 26.0426C24.5379 24.2732 23.4602 23.2291 21.3033 22.7049L8.65375 19.975C8.69313 19.7058 8.72375 19.448 8.74563 19.2072C8.76458 18.9918 8.68292 18.7793 8.52104 18.632C7.27125 17.4817 2.27354 17.1091 0.771458 17.0227C0.562917 17.017 0.373333 17.0808 0.2275 17.2139C0.083125 17.3471 0 17.5355 0 17.731V30.481C0 30.872 0.326667 31.1893 0.729167 31.1893H5.10417C5.41917 31.1893 5.69917 30.9924 5.79688 30.7006C5.81583 30.6439 5.915 30.3464 6.06521 29.886L16.5127 33.269C17.7392 33.7181 18.585 33.9788 19.5358 33.9788C21.0146 33.9773 22.7471 33.3498 26.5533 31.8353L34.5742 28.2937C34.7535 28.2143 34.8935 28.067 34.9592 27.8857C35.0248 27.7015 35.0131 27.5032 34.9242 27.3303ZM4.57188 29.7727H1.45688V18.4903C3.80042 18.6703 6.33063 19.0613 7.24938 19.4948C6.86292 22.5973 5.11438 28.1081 4.57188 29.7727ZM25.9729 30.5334C19.8421 32.9729 19.6306 32.8964 17.0013 31.9331L6.49396 28.5317C7.09333 26.6036 7.92896 23.7433 8.40729 21.3747L20.9679 24.0862C22.5838 24.4786 23.2327 25.0963 23.3217 26.3897L21.9217 26.7297C21.4025 26.8572 20.8512 26.8699 20.3233 26.7665L13.9971 25.5368C13.596 25.4547 13.2183 25.7083 13.1396 26.0922C13.0608 26.4761 13.316 26.8487 13.7113 26.9252L20.039 28.1548C20.3671 28.2186 20.704 28.2498 21.0394 28.2498C21.4565 28.2498 21.875 28.2016 22.276 28.1024L24.2317 27.6278C24.2346 27.6278 24.236 27.6278 24.239 27.6278L29.8258 26.2707C31.1004 25.9633 32.3969 26.3953 33.2019 27.3417L25.9729 30.5334ZM21.3354 19.6237C21.474 19.771 21.6694 19.856 21.875 19.856C22.0806 19.856 22.276 19.771 22.4175 19.6237C22.664 19.3602 28.4623 13.1538 30.3508 10.9112C31.4854 9.56534 32.0848 8.01692 32.0848 6.43167C32.0848 2.89709 29.3533 0.0226746 25.9977 0.0226746C24.4562 0.0226746 22.9935 0.630425 21.8765 1.71417C20.7594 0.630425 19.2981 0.0226746 17.7552 0.0226746C14.3996 0.0226746 11.6681 2.89709 11.6681 6.43167C11.6681 8.01692 12.2675 9.56534 13.4021 10.9112C15.2906 13.1523 21.089 19.3588 21.3354 19.6237ZM17.7537 1.43934C19.1202 1.43934 20.4108 2.08817 21.2931 3.21867C21.5702 3.57142 22.1798 3.57142 22.4554 3.21867C23.3392 2.08817 24.6298 1.43934 25.9963 1.43934C28.5483 1.43934 30.625 3.67909 30.625 6.43167C30.625 8.01551 29.8608 9.25367 29.2206 10.013C27.6879 11.832 23.3931 16.4617 21.875 18.0923C20.3569 16.4617 16.0621 11.832 14.5294 10.013C13.8877 9.25226 13.125 8.01409 13.125 6.43026C13.125 3.67767 15.2017 1.43934 17.7537 1.43934Z" fill="#32365A"/>
</g>
<defs>
<clipPath id="clip0_13_1100">
<rect width="35" height="34" fill="white"/>
</clipPath>
</defs>
</svg>
