<svg width="33" height="31" viewBox="0 0 33 31" fill="none" xmlns="http://www.w3.org/2000/svg">
<path d="M25.4375 30.625C23.5428 30.625 22 29.0823 22 27.1875C22 25.2928 23.5428 23.75 25.4375 23.75C27.3323 23.75 28.875 25.2928 28.875 27.1875C28.875 29.0823 27.3323 30.625 25.4375 30.625ZM25.4375 25.125C24.3004 25.125 23.375 26.0504 23.375 27.1875C23.375 28.3246 24.3004 29.25 25.4375 29.25C26.5746 29.25 27.5 28.3246 27.5 27.1875C27.5 26.0504 26.5746 25.125 25.4375 25.125Z" fill="#32365A"/>
<path d="M11.6875 30.625C9.79275 30.625 8.25 29.0823 8.25 27.1875C8.25 25.2928 9.79275 23.75 11.6875 23.75C13.5823 23.75 15.125 25.2928 15.125 27.1875C15.125 29.0823 13.5823 30.625 11.6875 30.625ZM11.6875 25.125C10.5504 25.125 9.625 26.0504 9.625 27.1875C9.625 28.3246 10.5504 29.25 11.6875 29.25C12.8246 29.25 13.75 28.3246 13.75 27.1875C13.75 26.0504 12.8246 25.125 11.6875 25.125Z" fill="#32365A"/>
<path d="M29.5625 22.375H12.3186C10.0334 22.375 8.04788 20.7484 7.59963 18.5071L4.24875 1.75H0.6875C0.308 1.75 0 1.442 0 1.0625C0 0.683 0.308 0.375 0.6875 0.375H4.8125C5.13975 0.375 5.42163 0.606 5.48625 0.92775L8.9485 18.2362C9.26888 19.8381 10.6865 21 12.3186 21H29.5625C29.942 21 30.25 21.308 30.25 21.6875C30.25 22.067 29.942 22.375 29.5625 22.375Z" fill="#32365A"/>
<path d="M8.25 18.25C7.90625 18.25 7.61063 17.9943 7.568 17.645C7.52262 17.2683 7.79075 16.9259 8.16887 16.8791L29.81 14.2556C30.118 14.2185 30.3641 13.9779 30.4081 13.6699L31.5191 5.875H6.1875C5.808 5.875 5.5 5.567 5.5 5.1875C5.5 4.808 5.808 4.5 6.1875 4.5H32.3125C32.5119 4.5 32.7016 4.58662 32.8322 4.7365C32.9629 4.88637 33.022 5.08713 32.9931 5.28375L31.7666 13.8651C31.6346 14.7864 30.8976 15.5083 29.9736 15.621L8.3325 18.2459C8.305 18.2486 8.2775 18.25 8.25 18.25Z" fill="#32365A"/>
</svg>
