<svg width="14" height="14" viewBox="0 0 14 14" fill="none" xmlns="http://www.w3.org/2000/svg">
<path d="M8.66663 3.33333C9.15806 3.42922 9.64591 3.64595 9.99996 4C10.354 4.35405 10.5707 4.84189 10.6666 5.33333M8.99996 1C10.021 1.11343 10.9398 1.60738 11.6666 2.33333C12.3935 3.05929 12.8852 3.97912 13 5M12.9996 9.98444V11.791C13.0024 12.4815 12.3815 13.0582 11.6843 12.9953C5.66667 13 1 8.28999 1.00471 2.31279C0.941917 1.6193 1.51572 1.00071 2.20541 1.00006H4.0155C4.30832 0.997182 4.59219 1.10067 4.81421 1.29123C5.44542 1.833 5.85142 3.67185 5.69521 4.40285C5.57325 4.97358 4.99794 5.37286 4.6068 5.76323C5.46572 7.27079 6.71643 8.51903 8.22698 9.37625C8.61812 8.98589 9.0182 8.41171 9.59005 8.28999C10.3236 8.13385 12.1743 8.54043 12.7139 9.17603C12.9053 9.40141 13.0069 9.68913 12.9996 9.98444Z" stroke="#3C7460" stroke-width="1.5" stroke-linecap="round" stroke-linejoin="round"/>
</svg>
