<svg width="12" height="17" viewBox="0 0 12 17" fill="none" xmlns="http://www.w3.org/2000/svg">
<path d="M5.89583 8.45833C4.23075 8.45833 2.875 7.10258 2.875 5.4375C2.875 3.77242 4.23075 2.41667 5.89583 2.41667C7.56092 2.41667 8.91667 3.77242 8.91667 5.4375C8.91667 7.10258 7.56092 8.45833 5.89583 8.45833ZM5.89583 3.625C4.89654 3.625 4.08333 4.43821 4.08333 5.4375C4.08333 6.43679 4.89654 7.25 5.89583 7.25C6.89512 7.25 7.70833 6.43679 7.70833 5.4375C7.70833 4.43821 6.89512 3.625 5.89583 3.625Z" fill="#3C7460"/>
<path d="M5.89587 16.9167C5.682 16.9167 5.48383 16.8031 5.37508 16.6194C4.87242 15.7651 0.458374 8.19129 0.458374 5.4375C0.458374 2.43962 2.898 0 5.89587 0C8.89375 0 11.3334 2.43962 11.3334 5.4375C11.3334 8.19129 6.91933 15.7651 6.41667 16.6194C6.30792 16.8031 6.10975 16.9167 5.89587 16.9167ZM5.89587 1.20833C3.56379 1.20833 1.66671 3.10542 1.66671 5.4375C1.66671 7.25967 4.36371 12.3999 5.89587 15.103C7.42804 12.3999 10.125 7.25967 10.125 5.4375C10.125 3.10542 8.22796 1.20833 5.89587 1.20833Z" fill="#3C7460"/>
</svg>
