<svg width="45" height="46" viewBox="0 0 45 46" fill="none" xmlns="http://www.w3.org/2000/svg">
<path d="M8.4375 34.5C5.85375 34.5 3.75 32.3495 3.75 29.7083C3.75 27.0672 5.85375 24.9167 8.4375 24.9167C11.0213 24.9167 13.125 27.0672 13.125 29.7083C13.125 32.3495 11.0213 34.5 8.4375 34.5ZM8.4375 26.8333C6.88687 26.8333 5.625 28.1232 5.625 29.7083C5.625 31.2934 6.88687 32.5833 8.4375 32.5833C9.98812 32.5833 11.25 31.2934 11.25 29.7083C11.25 28.1232 9.98812 26.8333 8.4375 26.8333Z" fill="#32365A"/>
<path d="M36.5625 34.5C33.9787 34.5 31.875 32.3495 31.875 29.7083C31.875 27.0672 33.9787 24.9167 36.5625 24.9167C39.1463 24.9167 41.25 27.0672 41.25 29.7083C41.25 32.3495 39.1463 34.5 36.5625 34.5ZM36.5625 26.8333C35.0119 26.8333 33.75 28.1232 33.75 29.7083C33.75 31.2934 35.0119 32.5833 36.5625 32.5833C38.1131 32.5833 39.375 31.2934 39.375 29.7083C39.375 28.1232 38.1131 26.8333 36.5625 26.8333Z" fill="#32365A"/>
<path d="M40.3125 30.6667C39.795 30.6667 39.375 30.2373 39.375 29.7083C39.375 29.1793 39.795 28.75 40.3125 28.75C41.7113 28.75 43.125 27.7629 43.125 25.875C43.125 23.9487 42.1256 21.0833 39.375 21.0833H37.7906C36.7856 21.0833 35.7994 20.7287 35.0175 20.0867L27.63 14.0473C27.1313 13.6409 26.5088 13.4167 25.8713 13.4167H12.3188C11.3775 13.4167 10.5019 13.8958 9.97875 14.697L8.38313 17.1446C7.55625 18.4115 6.17625 19.1667 4.6875 19.1667C3.13687 19.1667 1.875 20.4566 1.875 22.0417V25.875C1.875 27.4601 3.13687 28.75 4.6875 28.75C5.205 28.75 5.625 29.1793 5.625 29.7083C5.625 30.2373 5.205 30.6667 4.6875 30.6667C2.10375 30.6667 0 28.5162 0 25.875V22.0417C0 19.4005 2.10375 17.25 4.6875 17.25C5.54625 17.25 6.345 16.813 6.82312 16.0827L8.41875 13.6332C9.29062 12.2973 10.7475 11.5 12.3188 11.5H25.8713C26.9306 11.5 27.9712 11.8737 28.8 12.5503L36.1875 18.5917C36.6412 18.9635 37.2094 19.1667 37.7887 19.1667H39.375C43.0294 19.1667 45 22.6224 45 25.875C45 28.6062 42.9844 30.6667 40.3125 30.6667Z" fill="#32365A"/>
<path d="M32.8125 30.6667H12.1875C11.67 30.6667 11.25 30.2373 11.25 29.7083C11.25 29.1793 11.67 28.75 12.1875 28.75H32.8125C33.33 28.75 33.75 29.1793 33.75 29.7083C33.75 30.2373 33.33 30.6667 32.8125 30.6667Z" fill="#32365A"/>
<path d="M30.9375 21.0833H21.5625C21.045 21.0833 20.625 20.654 20.625 20.125V16.2917C20.625 15.7627 21.045 15.3333 21.5625 15.3333C22.08 15.3333 22.5 15.7627 22.5 16.2917V19.1667H30.9375C31.455 19.1667 31.875 19.596 31.875 20.125C31.875 20.654 31.455 21.0833 30.9375 21.0833Z" fill="#32365A"/>
<path d="M17.8124 21.0833H10.3124C9.98807 21.0833 9.6862 20.9108 9.51557 20.6291C9.34495 20.3473 9.32807 19.9927 9.47432 19.6976L11.3493 15.8642C11.5818 15.3889 12.1424 15.1992 12.6074 15.4349C13.0706 15.6726 13.2581 16.2476 13.0274 16.721L11.8293 19.1667H17.8124C18.3299 19.1667 18.7499 19.596 18.7499 20.125C18.7499 20.654 18.3299 21.0833 17.8124 21.0833Z" fill="#32365A"/>
<path d="M25.3125 24.9167H23.4375C22.92 24.9167 22.5 24.4873 22.5 23.9583C22.5 23.4293 22.92 23 23.4375 23H25.3125C25.83 23 26.25 23.4293 26.25 23.9583C26.25 24.4873 25.83 24.9167 25.3125 24.9167Z" fill="#32365A"/>
</svg>
