<svg width="35" height="35" viewBox="0 0 35 35" fill="none" xmlns="http://www.w3.org/2000/svg">
<g clip-path="url(#clip0_13_1098)">
<path d="M17.3733 34.3963C17.1793 34.3963 16.9926 34.319 16.857 34.1819C16.0374 33.3608 14.6068 33.355 13.7785 34.1731C13.6414 34.3088 13.5072 34.3875 13.2622 34.3846C13.0683 34.3831 12.883 34.3058 12.7474 34.1673C7.23201 28.5804 3.12097 24.4475 0.864924 22.2148C0.582007 21.9348 0.576174 21.4813 0.85034 21.1925C1.24117 20.7813 1.45701 20.2446 1.45701 19.6875C1.45701 19.1027 1.22951 18.5544 0.816799 18.1417C0.679715 18.0046 0.603882 17.8194 0.603882 17.6254C0.603882 17.4329 0.681173 17.2463 0.816799 17.1092L17.1078 0.816676C17.2449 0.679593 17.4301 0.60376 17.6241 0.60376C17.8181 0.60376 18.0047 0.681051 18.1403 0.818135C18.9628 1.64355 20.408 1.64355 21.2305 0.818135C21.3676 0.681051 21.5543 0.60376 21.7468 0.60376C21.9408 0.60376 22.126 0.681051 22.2631 0.816676L34.1805 12.7342C34.3176 12.8713 34.3935 13.0565 34.3935 13.2504C34.3935 13.4444 34.3162 13.6296 34.1805 13.7667C33.7678 14.1779 33.5403 14.7263 33.5403 15.3125C33.5403 15.8973 33.7678 16.4456 34.1805 16.8583C34.3176 16.9954 34.3935 17.1806 34.3935 17.3746C34.3935 17.5671 34.3162 17.7538 34.1805 17.8908L17.8895 34.1804C17.7524 34.319 17.5672 34.3963 17.3733 34.3963ZM15.3112 32.0833C16.0374 32.0833 16.7316 32.2948 17.3222 32.6871L32.6858 17.3236C32.2935 16.7315 32.082 16.0373 32.082 15.3125C32.082 14.5863 32.2935 13.8921 32.6858 13.3015L21.6972 2.31293C20.5145 3.09751 18.8578 3.09751 17.6751 2.31293L2.31159 17.6765C2.70388 18.2656 2.91534 18.9598 2.91534 19.6875C2.91534 20.3831 2.71701 21.054 2.34805 21.6315C5.15534 24.4183 9.73159 29.0398 13.3205 32.674C13.9083 32.2904 14.5951 32.0833 15.3112 32.0833Z" fill="#32365A"/>
<path d="M6.56006 20.4167C6.37339 20.4167 6.18672 20.3452 6.04381 20.2038L4.58547 18.7454C4.3011 18.461 4.3011 17.9988 4.58547 17.7144C4.86985 17.43 5.33214 17.43 5.61652 17.7144L7.07485 19.1727C7.35922 19.4571 7.35922 19.9194 7.07485 20.2038C6.93339 20.3452 6.74672 20.4167 6.56006 20.4167Z" fill="#32365A"/>
<path d="M16.7684 30.625C16.5818 30.625 16.3951 30.5536 16.2522 30.4121L14.7938 28.9538C14.5095 28.6694 14.5095 28.2071 14.7938 27.9227C15.0782 27.6383 15.5405 27.6383 15.8249 27.9227L17.2832 29.3811C17.5676 29.6654 17.5676 30.1277 17.2832 30.4121C17.1418 30.5536 16.9551 30.625 16.7684 30.625Z" fill="#32365A"/>
<path d="M11.6642 25.5208C11.4775 25.5208 11.2908 25.4494 11.1479 25.3079L9.6896 23.8496C9.40522 23.5652 9.40522 23.1029 9.6896 22.8185C9.97397 22.5342 10.4363 22.5342 10.7206 22.8185L12.179 24.2769C12.4633 24.5612 12.4633 25.0235 12.179 25.3079C12.0375 25.4494 11.8509 25.5208 11.6642 25.5208Z" fill="#32365A"/>
<path d="M19.6851 7.29022C19.4984 7.29022 19.3117 7.21876 19.1688 7.07731L17.7105 5.61897C17.4261 5.3346 17.4261 4.87231 17.7105 4.58793C17.9948 4.30356 18.4571 4.30356 18.7415 4.58793L20.1998 6.04626C20.4842 6.33064 20.4842 6.79293 20.1998 7.07731C20.0584 7.21876 19.8717 7.29022 19.6851 7.29022Z" fill="#32365A"/>
<path d="M24.7892 12.3958C24.6025 12.3958 24.4159 12.3244 24.2729 12.1829L22.8146 10.7246C22.5302 10.4402 22.5302 9.97793 22.8146 9.69355C23.099 9.40918 23.5613 9.40918 23.8456 9.69355L25.304 11.1519C25.5884 11.4363 25.5884 11.8986 25.304 12.1829C25.1625 12.3244 24.9759 12.3958 24.7892 12.3958Z" fill="#32365A"/>
<path d="M29.8934 17.5C29.7068 17.5 29.5201 17.4285 29.3772 17.2871L27.9188 15.8287C27.6345 15.5444 27.6345 15.0821 27.9188 14.7977C28.2032 14.5133 28.6655 14.5133 28.9499 14.7977L30.4082 16.256C30.6926 16.5404 30.6926 17.0027 30.4082 17.2871C30.2668 17.4285 30.0801 17.5 29.8934 17.5Z" fill="#32365A"/>
<path d="M19.0023 24.6809C18.7311 24.6809 18.4788 24.5292 18.3534 24.2827L16.3773 20.4021L12.0767 21.0831C11.7573 21.1415 11.4554 20.9752 11.314 20.6938C11.1696 20.4123 11.2236 20.0711 11.4481 19.8465L14.5267 16.7679L12.5477 12.8888C12.4048 12.6088 12.4588 12.2646 12.6819 12.0415C12.9036 11.8184 13.2492 11.7629 13.5277 11.9073L17.4084 13.8834L20.4869 10.8048C20.7086 10.5817 21.0542 10.5263 21.3327 10.6707C21.6142 10.8136 21.7717 11.1227 21.7236 11.4334L21.0411 15.734L24.9202 17.7115C25.2017 17.8544 25.3592 18.1636 25.3111 18.4742C25.2615 18.7863 25.0165 19.0313 24.7044 19.0809L20.4038 19.7619L19.7227 24.0625C19.6731 24.3746 19.4281 24.6196 19.1161 24.6692C19.0781 24.6765 19.0402 24.6809 19.0023 24.6809ZM16.7856 18.8694C17.0569 18.8694 17.3092 19.0211 17.4346 19.2675L18.6334 21.6213L19.0461 19.0123C19.0956 18.7002 19.3406 18.4552 19.6527 18.4057L22.2588 17.9929L19.9079 16.7942C19.6265 16.6513 19.469 16.3421 19.5171 16.0315L19.9313 13.424L18.0646 15.2906C17.8415 15.5138 17.4973 15.5692 17.2188 15.4248L14.865 14.2261L16.0638 16.5784C16.2081 16.8598 16.1542 17.2011 15.9296 17.4257L14.0629 19.2923L16.6704 18.8796C16.7098 18.8723 16.7477 18.8694 16.7856 18.8694Z" fill="#32365A"/>
</g>
<defs>
<clipPath id="clip0_13_1098">
<rect width="35" height="35" fill="white"/>
</clipPath>
</defs>
</svg>
